<svg xmlns="http://www.w3.org/2000/svg" xmlns:xlink="http://www.w3.org/1999/xlink" width="32" height="25.437" viewBox="0 0 32 25.437">
  <defs>
    <clipPath id="clip-path">
      <rect id="Rectangle_55" data-name="Rectangle 55" width="32" height="25.437" fill="#fff"/>
    </clipPath>
  </defs>
  <g id="Group_264" data-name="Group 264" transform="translate(0 0)">
    <g id="Group_263" data-name="Group 263" transform="translate(0 0)" clip-path="url(#clip-path)">
      <path id="Path_381" data-name="Path 381" d="M23.368,3.417a1.252,1.252,0,0,0-1.588-.15c-1.871,1.276-11.251,7.686-12.26,8.694a3.75,3.75,0,0,0,5.3,5.3c1.009-1.008,7.42-10.39,8.694-12.259a1.25,1.25,0,0,0-.148-1.588M13.056,15.5a1.25,1.25,0,0,1-1.767-1.767c.391-.387,3.055-2.287,6.332-4.564-2.278,3.277-4.177,5.94-4.564,6.332" transform="translate(3.829 1.386)" fill="#fff"/>
      <path id="Path_382" data-name="Path 382" d="M5.764,21.814l-1.543.753a13.442,13.442,0,0,1-.842-11.36l1.767.848A1.25,1.25,0,0,0,6.228,9.8L4.483,8.964A13.512,13.512,0,0,1,14.751,2.557V4.438a1.249,1.249,0,0,0,2.5,0V2.556a13.353,13.353,0,0,1,4.3,1.133,1.251,1.251,0,0,0,1.03-2.279A15.987,15.987,0,0,0,2.711,24.881a1.249,1.249,0,0,0,1.587.429l2.563-1.249a1.25,1.25,0,0,0-1.1-2.247" transform="translate(0 -0.001)" fill="#fff"/>
      <path id="Path_383" data-name="Path 383" d="M22.974,6.709a1.251,1.251,0,0,0-2.281,1.028,13.453,13.453,0,0,1-.537,12.125l-1.612-.768a1.25,1.25,0,0,0-1.075,2.257L20.1,22.6a1.248,1.248,0,0,0,1.577-.433,15.964,15.964,0,0,0,1.3-15.459" transform="translate(7.617 2.714)" fill="#fff"/>
    </g>
  </g>
</svg>
