<svg id="Group_270" data-name="Group 270" xmlns="http://www.w3.org/2000/svg" xmlns:xlink="http://www.w3.org/1999/xlink" width="32" height="25.6" viewBox="0 0 32 25.6">
  <defs>
    <clipPath id="clip-path">
      <rect id="Rectangle_58" data-name="Rectangle 58" width="32" height="25.6" fill="#fff"/>
    </clipPath>
  </defs>
  <g id="Group_269" data-name="Group 269" clip-path="url(#clip-path)">
    <path id="Path_391" data-name="Path 391" d="M29.332,4.918H32V3.84A3.851,3.851,0,0,0,28.16,0H3.84A3.851,3.851,0,0,0,0,3.84V4.918H2.666a1.067,1.067,0,0,1,0,2.134H0V21.76A3.851,3.851,0,0,0,3.84,25.6H28.16A3.851,3.851,0,0,0,32,21.76V7.052H29.332a1.067,1.067,0,0,1,0-2.134M9.1,4.918H22.9a1.067,1.067,0,1,1,0,2.134H9.1a1.067,1.067,0,0,1,0-2.134m1.93,13.846a1.076,1.076,0,0,1,.076,1.514,1.094,1.094,0,0,1-.79.342,1.071,1.071,0,0,1-.726-.278l-3.9-3.552a1.061,1.061,0,0,1,0-1.578l3.9-3.552a1.068,1.068,0,1,1,1.44,1.578L7.988,16Zm7.158-6.848-2.7,8.468a1.072,1.072,0,0,1-1.024.748,1.111,1.111,0,0,1-.32-.054,1.065,1.065,0,0,1-.694-1.344l2.71-8.47a1.064,1.064,0,1,1,2.026.652m8.128,4.874-3.9,3.552a1.071,1.071,0,0,1-.726.278,1.089,1.089,0,0,1-.788-.342,1.075,1.075,0,0,1,.074-1.514L24.01,16l-3.04-2.762a1.068,1.068,0,1,1,1.44-1.578l3.9,3.552a1.061,1.061,0,0,1,0,1.578" fill="#fff"/>
  </g>
</svg>
