<svg xmlns="http://www.w3.org/2000/svg" viewBox="0 0 20 19.63"><title>Asset 16</title><g id="Layer_2" data-name="Layer 2"><g id="Layer_1-2" data-name="Layer 1"><path d="M19.29,18.23H.71a.7.7,0,0,0-.69.7.71.71,0,0,0,.69.7H19.3a.71.71,0,0,0,.7-.7.72.72,0,0,0-.71-.7ZM0,12.07l0,3.31a.73.73,0,0,0,.2.51.69.69,0,0,0,.5.21l3.29,0a.65.65,0,0,0,.49-.21L15.86,4.5a.72.72,0,0,0,0-1L12.6.2a.72.72,0,0,0-1,0L9.32,2.5.22,11.58a.72.72,0,0,0-.2.49ZM12.11,1.7,14.4,4,13.11,5.28,10.81,3l1.3-1.29ZM1.43,12.38,9.81,4l2.3,2.29L3.72,14.65l-2.31,0,0-2.29Z"/></g></g></svg>