<svg xmlns="http://www.w3.org/2000/svg" xmlns:xlink="http://www.w3.org/1999/xlink" width="32" height="29.192" viewBox="0 0 32 29.192">
  <defs>
    <clipPath id="clip-path">
      <rect id="Rectangle_56" data-name="Rectangle 56" width="32" height="29.192" fill="#fff"/>
    </clipPath>
  </defs>
  <g id="Group_266" data-name="Group 266" transform="translate(0 0)">
    <g id="Group_265" data-name="Group 265" transform="translate(0 0)" clip-path="url(#clip-path)">
      <path id="Path_384" data-name="Path 384" d="M28.158,2.442H26.245A2.573,2.573,0,0,1,23.684,5H8.316A2.563,2.563,0,0,1,5.755,2.442H3.842A3.845,3.845,0,0,0,0,6.284V24.2a3.845,3.845,0,0,0,3.842,3.842H28.158A3.845,3.845,0,0,0,32,24.2V6.284a3.845,3.845,0,0,0-3.842-3.842M19.165,12.79a13.843,13.843,0,0,0-1.178,2.826h1.3a.347.347,0,0,1,.324.442l-.471,1.752a.458.458,0,0,1-.383.309h-1.6c-.707,2.031-1.5,3.915-2.723,4.769a6.5,6.5,0,0,1-3.783,1.178,6.285,6.285,0,0,1-1.266-.132l.412-1.575a4.806,4.806,0,0,0,3.68-.795c1.089-.765,1.914-3.282,2.649-5.505A20.138,20.138,0,0,1,17.8,11.892a6.26,6.26,0,0,1,4.8-2.532l.029,1.619a4.625,4.625,0,0,0-3.459,1.81" transform="translate(0 1.152)" fill="#fff"/>
      <path id="Path_385" data-name="Path 385" d="M19.245,4.626H7.68A2.313,2.313,0,1,1,7.68,0H19.245a2.313,2.313,0,0,1,0,4.626" transform="translate(2.532 0)" fill="#fff"/>
    </g>
  </g>
</svg>
