<svg xmlns="http://www.w3.org/2000/svg" width="25" height="25.029" viewBox="0 0 25 25.029">
  <g id="Group_616" data-name="Group 616" transform="translate(0 0.008)">
    <path id="Path_97" data-name="Path 97" d="M8.714.5H21.956c2.7,0,4.186,1.486,4.186,4.186v6.34" transform="translate(-1.643 0)" fill="none" stroke="#272f43" stroke-width="1"/>
    <path id="Path_98" data-name="Path 98" d="M8.714.5H21.956c2.7,0,4.186,1.486,4.186,4.186v6.34" transform="translate(-1.643 0)" fill="none" stroke="#294884" stroke-width="1"/>
    <path id="Path_100" data-name="Path 100" d="M18.082,24.521H6.918C2,24.521.5,23.022.5,18.1V6.939C.5,2.02,2,.521,6.918.521H8.593A3.449,3.449,0,0,1,11.94,2.193l1.68,2.235c.37.494.418.56,1.12.56h3.349C23,4.986,24.5,6.485,24.5,11.4v6.7c0,4.923-1.5,6.422-6.418,6.422" transform="translate(0)" fill="#82abf8" stroke="#294884" stroke-width="1"/>
  </g>
</svg>
