<svg xmlns="http://www.w3.org/2000/svg" xmlns:xlink="http://www.w3.org/1999/xlink" width="32" height="31.76" viewBox="0 0 32 31.76">
  <defs>
    <clipPath id="clip-path">
      <rect id="Rectangle_57" data-name="Rectangle 57" width="32" height="31.76" fill="#fff"/>
    </clipPath>
  </defs>
  <g id="Group_268" data-name="Group 268" transform="translate(0 0)">
    <g id="Group_267" data-name="Group 267" transform="translate(0 0)" clip-path="url(#clip-path)">
      <path id="Path_386" data-name="Path 386" d="M12.5,14.434H1.936A1.943,1.943,0,0,1,0,12.5V1.936A1.942,1.942,0,0,1,1.936,0H12.5a1.941,1.941,0,0,1,1.936,1.936V12.5A1.942,1.942,0,0,1,12.5,14.434" transform="translate(0 0.001)" fill="#fff"/>
      <path id="Path_387" data-name="Path 387" d="M23.324,14.434H12.762A1.943,1.943,0,0,1,10.826,12.5V1.936A1.942,1.942,0,0,1,12.762,0H23.324A1.941,1.941,0,0,1,25.26,1.936V12.5a1.942,1.942,0,0,1-1.936,1.936" transform="translate(6.496 0.001)" fill="#fff"/>
      <path id="Path_388" data-name="Path 388" d="M12.5,25.26H1.936A1.943,1.943,0,0,1,0,23.324V12.762a1.942,1.942,0,0,1,1.936-1.936H12.5a1.941,1.941,0,0,1,1.936,1.936V23.324A1.942,1.942,0,0,1,12.5,25.26" transform="translate(0 6.496)" fill="#fff"/>
      <path id="Path_389" data-name="Path 389" d="M15.919,25.447a1.444,1.444,0,0,1-1.443-1.437l-.061-12.037a1.444,1.444,0,0,1,1.435-1.451h.008A1.444,1.444,0,0,1,17.3,11.959L17.362,24a1.444,1.444,0,0,1-1.437,1.451Z" transform="translate(8.649 6.314)" fill="#fff"/>
      <path id="Path_390" data-name="Path 390" d="M12.115,17.212a1.443,1.443,0,0,1-.006-2.886l12.037-.061h.008a1.443,1.443,0,0,1,.006,2.886l-12.038.061Z" transform="translate(6.403 8.56)" fill="#fff"/>
    </g>
  </g>
</svg>
