<svg xmlns="http://www.w3.org/2000/svg" xmlns:xlink="http://www.w3.org/1999/xlink" width="31.971" height="32" viewBox="0 0 31.971 32">
  <defs>
    <clipPath id="clip-path">
      <rect id="Rectangle_59" data-name="Rectangle 59" width="31.971" height="32" fill="#fff"/>
    </clipPath>
  </defs>
  <g id="Group_272" data-name="Group 272" transform="translate(0 0)">
    <g id="Group_271" data-name="Group 271" transform="translate(0 0)" clip-path="url(#clip-path)">
      <path id="Path_392" data-name="Path 392" d="M29.69,12.643H28.526a12.9,12.9,0,0,0-1.293-3.154l.83-.828a2.273,2.273,0,0,0,0-3.212L26.536,3.923a2.211,2.211,0,0,0-1.6-.654,2.164,2.164,0,0,0-1.6.654l-.842.828a12.831,12.831,0,0,0-3.154-1.308V2.281A2.284,2.284,0,0,0,17.061,0H14.924a2.285,2.285,0,0,0-2.281,2.281V3.443A13.7,13.7,0,0,0,9.489,4.751l-.828-.828a2.267,2.267,0,0,0-1.613-.654,2.187,2.187,0,0,0-1.6.654L3.939,5.449a2.27,2.27,0,0,0,0,3.212l.828.828a12.616,12.616,0,0,0-1.308,3.154H2.281A2.284,2.284,0,0,0,0,14.924v2.152a2.285,2.285,0,0,0,2.281,2.281H3.459a12.422,12.422,0,0,0,1.308,3.154l-.828.828a2.27,2.27,0,0,0,0,3.212l1.511,1.525a2.3,2.3,0,0,0,3.212,0l.828-.828a12.965,12.965,0,0,0,3.154,1.308v1.164A2.285,2.285,0,0,0,14.924,32h2.137a2.275,2.275,0,0,0,2.281-2.281V28.541A12.545,12.545,0,0,0,22.5,27.233l.842.828a2.218,2.218,0,0,0,1.6.668,2.194,2.194,0,0,0,1.6-.668l1.527-1.511a2.291,2.291,0,0,0,0-3.226l-.83-.828a12.6,12.6,0,0,0,1.293-3.154H29.69a2.286,2.286,0,0,0,2.281-2.283V14.924a2.284,2.284,0,0,0-2.281-2.281m-13.7,9.78A6.423,6.423,0,1,1,22.423,16a6.434,6.434,0,0,1-6.437,6.423" transform="translate(0 0)" fill="#fff"/>
    </g>
  </g>
</svg>
