<?xml version="1.0" encoding="utf-8"?>
<!-- Generator: Adobe Illustrator 24.1.0, SVG Export Plug-In . SVG Version: 6.00 Build 0)  -->
<svg version="1.1" id="Layer_1" xmlns="http://www.w3.org/2000/svg" xmlns:xlink="http://www.w3.org/1999/xlink" x="0px" y="0px"
	 viewBox="0 0 24 24" style="enable-background:new 0 0 24 24;" xml:space="preserve">
<style type="text/css">
	.st0{fill:#1CB394;}
	.st1{fill:#224989;}
</style>
<g>
	<g>
		<path class="st0" d="M6,11.3v-0.9h5v0.9H6z M6,13.5v-0.9h5v0.9H6z"/>
		<path class="st0" d="M16.4,14.7l-1.2-1.8l-1.2,1.8h-1.6l1.9-2.8l-1.8-2.6H14l1.1,1.7l1.1-1.7h1.6l-1.8,2.6l1.9,2.8H16.4z"/>
	</g>
</g>
<path class="st1" d="M14.7,1.2l0.4,0.2c0.9,0.4,1.7,0.7,2.6,1.1c-0.1,0.4-0.2,0.7-0.2,1.1c-0.1,0.5-0.2,1-0.3,1.4
	c-0.2,0.6,0.2,1,0.4,1.2c0.1,0.1,0.2,0.2,0.3,0.3c0.2,0.3,0.6,0.4,0.9,0.4c0.1,0,0.2,0,0.3,0c0.6-0.1,1.2-0.3,1.7-0.4l0.8-0.2
	c0.4,0.9,0.7,1.8,1.1,2.7l0.1,0.3c-0.7,0.5-1.5,0.9-2.2,1.4c-0.4,0.3-0.7,0.7-0.6,1.2c0,0.1,0,0.2,0,0.3c0,0.5,0.2,0.9,0.6,1.2
	c0.7,0.5,1.5,0.9,2.2,1.4l-0.2,0.4c-0.4,0.9-0.7,1.7-1.1,2.6c-0.4-0.1-0.7-0.2-1.1-0.3c-0.5-0.1-1-0.2-1.4-0.3c-0.1,0-0.2,0-0.3,0
	c-0.4,0-0.7,0.2-0.9,0.4c-0.1,0.1-0.2,0.2-0.3,0.3c-0.2,0.2-0.5,0.6-0.4,1.2c0.1,0.5,0.2,1,0.3,1.4c0.1,0.4,0.2,0.7,0.3,1.1
	c-1,0.4-2,0.8-3,1.2c-0.2-0.3-0.4-0.6-0.5-0.8c-0.3-0.4-0.6-0.9-0.8-1.3C13,20,12.5,20,12.3,20l-0.1,0l0,0c-0.1,0-0.1,0-0.2,0
	c-0.1,0-0.1,0-0.2,0l-0.1,0h0c-0.3,0-0.7,0.1-1.1,0.6c-0.5,0.7-0.9,1.5-1.4,2.2l-0.8-0.3l-2.2-0.9l0-0.1l0.1-0.5
	c0.1-0.6,0.3-1.3,0.4-1.9c0.1-0.5,0-0.9-0.4-1.3c-0.1-0.1-0.2-0.2-0.3-0.3c-0.2-0.3-0.6-0.4-0.9-0.4c-0.1,0-0.2,0-0.3,0
	c-0.7,0.2-1.4,0.3-2,0.5l-0.5,0.1c-0.4-0.9-0.7-1.7-1.1-2.6l-0.1-0.3l0,0c0.7-0.4,1.4-0.9,2.1-1.3c0.4-0.3,0.7-0.7,0.6-1.2
	c0-0.1,0-0.2,0-0.3c0-0.5-0.2-1-0.6-1.2C2.7,10.2,2,9.8,1.3,9.3l-0.1,0l0.2-0.4c0.3-0.8,0.7-1.7,1-2.5c0.3,0.1,0.7,0.2,1,0.2
	C4,6.7,4.5,6.8,5,6.9c0.1,0,0.2,0,0.3,0c0.4,0,0.7-0.2,0.9-0.4c0.1-0.1,0.2-0.2,0.3-0.3C6.9,5.9,7,5.5,6.9,5
	C6.7,4.2,6.5,3.3,6.3,2.5l0,0L9,1.4l0.3-0.1c0.5,0.7,0.9,1.5,1.4,2.2C11,4,11.4,4.1,11.7,4.1l0.1,0l0,0c0.1,0,0.1,0,0.2,0
	c0.1,0,0.1,0,0.2,0l0.1,0h0c0.3,0,0.7-0.1,1.1-0.6C13.8,2.7,14.3,2,14.7,1.2L14.7,1.2 M9.7,0c-1.5,0.6-3,1.2-4.5,1.9
	c0,0.1,0,0.1,0,0.2c0.2,1,0.5,2.1,0.7,3.1c0,0.1,0,0.2-0.1,0.3C5.7,5.6,5.6,5.7,5.5,5.9C5.4,5.9,5.4,5.9,5.3,5.9c0,0-0.1,0-0.1,0
	C4.2,5.7,3.1,5.4,2,5.2c0,0-0.1,0-0.1,0c-0.1,0-0.1,0-0.2,0.1C1.2,6.7,0.6,8.1,0.1,9.5C0,9.6,0,9.6,0,9.7c0.1,0,0.1,0.1,0.2,0.1
	c0.9,0.6,1.8,1.1,2.7,1.7C3,11.6,3.1,11.6,3,11.8c0,0.2,0,0.3,0,0.5c0,0.1,0,0.2-0.1,0.3c-0.9,0.6-1.8,1.1-2.7,1.7
	c-0.1,0-0.1,0.1-0.2,0.1c0,0,0,0,0,0.1c0.6,1.5,1.2,2.9,1.8,4.4c0,0.1,0.1,0.1,0.1,0.1c0,0,0.1,0,0.1,0c1.1-0.2,2.1-0.5,3.2-0.7
	c0,0,0.1,0,0.1,0c0.1,0,0.1,0,0.2,0.1c0.1,0.1,0.2,0.3,0.4,0.4c0.1,0.1,0.1,0.2,0.1,0.3c-0.2,0.8-0.4,1.6-0.6,2.4
	c-0.1,0.3-0.1,0.6-0.2,0.9c1.5,0.6,3,1.2,4.5,1.9c0-0.1,0.1-0.1,0.1-0.2c0.6-0.9,1.1-1.8,1.7-2.8c0.1-0.1,0.1-0.1,0.2-0.1
	c0,0,0,0,0,0c0.1,0,0.2,0,0.3,0c0.1,0,0.2,0,0.3,0c0,0,0,0,0,0c0.1,0,0.2,0,0.2,0.1c0.6,0.9,1.2,1.9,1.7,2.8c0,0.1,0.1,0.1,0.1,0.1
	c0,0,0.1,0,0.1,0c1.4-0.6,2.8-1.2,4.2-1.7c0.1-0.1,0.2-0.1,0.1-0.2c-0.2-1.1-0.5-2.1-0.7-3.2c0-0.1,0-0.2,0.1-0.3
	c0.1-0.1,0.3-0.2,0.4-0.4c0.1-0.1,0.1-0.1,0.2-0.1c0,0,0.1,0,0.1,0c1.1,0.2,2.1,0.5,3.2,0.7c0,0,0.1,0,0.1,0c0.1,0,0.1,0,0.2-0.1
	c0.6-1.4,1.2-2.8,1.7-4.2c0,0,0-0.1,0.1-0.1c-0.1,0-0.1-0.1-0.2-0.1c-0.9-0.6-1.8-1.1-2.7-1.7c-0.1-0.1-0.1-0.1-0.1-0.2
	c0-0.2,0-0.3,0-0.5c0-0.1,0-0.2,0.1-0.3c0.9-0.6,1.8-1.1,2.8-1.7c0,0,0.1-0.1,0.1-0.1c0,0,0,0,0-0.1c-0.6-1.5-1.2-2.9-1.8-4.4
	c0-0.1-0.1-0.1-0.1-0.1c0,0,0,0-0.1,0c-1.1,0.2-2.1,0.5-3.2,0.7c0,0-0.1,0-0.1,0c-0.1,0-0.1,0-0.2-0.1c-0.1-0.1-0.2-0.3-0.4-0.4
	c-0.1-0.1-0.1-0.1-0.1-0.3c0.2-1.1,0.5-2.1,0.7-3.2c0-0.1,0-0.2-0.1-0.2c-1.4-0.6-2.8-1.2-4.2-1.7c-0.1,0-0.1,0-0.2-0.1
	c0,0.1-0.1,0.1-0.1,0.2c-0.6,0.9-1.1,1.8-1.7,2.7c-0.1,0.1-0.1,0.1-0.2,0.1c0,0,0,0,0,0c-0.1,0-0.2,0-0.3,0c-0.1,0-0.2,0-0.3,0
	c0,0,0,0,0,0c-0.1,0-0.2,0-0.2-0.1C10.9,2,10.4,1.1,9.8,0.2C9.7,0.1,9.7,0.1,9.7,0L9.7,0z"/>
</svg>
