<svg xmlns="http://www.w3.org/2000/svg" width="31" height="27.557" viewBox="0 0 31 27.557">
  <path id="Announcement" d="M31,13.241a4.858,4.858,0,0,0-3.942-4.763V2.491A2.488,2.488,0,0,0,23.376.306L8.565,8.386H.912A.911.911,0,0,0,0,9.3v7.885a.912.912,0,0,0,.912.912h.666V24.28a3.278,3.278,0,0,0,6.556,0V18.095h.432l14.811,8.078a2.466,2.466,0,0,0,2.464-.044,2.47,2.47,0,0,0,1.218-2.141V18A4.858,4.858,0,0,0,31,13.241m-6.091,11.32a.657.657,0,0,1-.66.011L9.708,16.641V9.84L24.249,1.907a.665.665,0,0,1,.985.584v21.5a.659.659,0,0,1-.325.573M4.854,25.734A1.456,1.456,0,0,1,3.4,24.28V18.095H6.309V24.28a1.456,1.456,0,0,1-1.455,1.453M1.824,10.21H7.885v6.061H1.824Zm25.234.155a3.011,3.011,0,0,1,0,5.751Z" transform="translate(0 0)" fill="#263045"/>
</svg>
