<svg xmlns="http://www.w3.org/2000/svg" xmlns:xlink="http://www.w3.org/1999/xlink" width="287.781" height="261.135" viewBox="0 0 287.781 261.135">
  <defs>
    <clipPath id="clip-path">
      <rect id="Rectangle_30" data-name="Rectangle 30" width="287.781" height="261.135" fill="none"/>
    </clipPath>
    <clipPath id="clip-path-2">
      <rect id="Rectangle_31" data-name="Rectangle 31" width="150" height="148.862" fill="none"/>
    </clipPath>
  </defs>
  <g id="Empty_Folder_Flow_" data-name="Empty Folder/Flow " transform="translate(-1365.889 -694)">
    <g id="Group_172" data-name="Group 172" transform="translate(1365.889 694)">
      <g id="Group_171" data-name="Group 171" clip-path="url(#clip-path)">
        <path id="Path_81" data-name="Path 81" d="M22.013,63.732c-29.689,29.689-29.3,78.213.874,108.383s78.694,30.562,108.383.874,29.3-78.213-.874-108.383S51.7,34.044,22.013,63.732" transform="translate(0 66.134)" fill="#e8e8e8"/>
        <path id="Path_82" data-name="Path 82" d="M63.732,22.013c-29.689,29.689-29.3,78.213.874,108.383s78.694,30.562,108.383.874,29.3-78.213-.874-108.383S93.421-7.675,63.732,22.013" transform="translate(66.134 0)" fill="#e8e8e8"/>
        <line id="Line_22" data-name="Line 22" y1="12.926" x2="12.926" transform="translate(5.671 79.928)" fill="none" stroke="#e8e8e8" stroke-linecap="round" stroke-linejoin="round" stroke-width="2"/>
        <line id="Line_23" data-name="Line 23" x1="12.926" y1="12.926" transform="translate(5.671 79.928)" fill="none" stroke="#e8e8e8" stroke-linecap="round" stroke-linejoin="round" stroke-width="2"/>
        <line id="Line_24" data-name="Line 24" y1="7.04" x2="7.04" transform="translate(236.277 172.262)" fill="none" stroke="#e8e8e8" stroke-linecap="round" stroke-linejoin="round" stroke-width="2"/>
        <line id="Line_25" data-name="Line 25" x1="7.04" y1="7.04" transform="translate(236.276 172.262)" fill="none" stroke="#e8e8e8" stroke-linecap="round" stroke-linejoin="round" stroke-width="2"/>
        <circle id="Ellipse_23" data-name="Ellipse 23" cx="8.446" cy="8.446" r="8.446" transform="translate(269.596 35.3)" fill="none" stroke="#e8e8e8" stroke-width="2"/>
      </g>
    </g>
    <g id="Group_177" data-name="Group 177" transform="translate(1434.779 750.137)">
      <g id="Group_176" data-name="Group 176" transform="translate(0 0)" clip-path="url(#clip-path-2)">
        <path id="Path_83" data-name="Path 83" d="M8.831,9.418A8.341,8.341,0,0,0,.5,17.749v87.219L18.458,51.547a10.7,10.7,0,0,1-6.056-9.6V9.418Z" transform="translate(1.88 35.422)" fill="#fff"/>
        <path id="Path_84" data-name="Path 84" d="M3.5,8.831V75.483a8.306,8.306,0,0,0,4.437,7.322l5.342-15.892A10.706,10.706,0,0,1,23.434,59.62H54.765a10.759,10.759,0,0,1,9.2,5.223l4,6.7A8.38,8.38,0,0,0,75.122,75.6h44.095l.01-.114V8.831A8.341,8.341,0,0,0,110.9.5H11.831A8.341,8.341,0,0,0,3.5,8.831M41.106,36.206a1.191,1.191,0,0,1,1.19-1.19H60.149V26.685H51.818a4.763,4.763,0,0,1-4.761-4.761V17.163A4.763,4.763,0,0,1,51.818,12.4H70.861a4.763,4.763,0,0,1,4.761,4.761v4.761a4.763,4.763,0,0,1-4.761,4.761H62.53v8.331H80.383a1.191,1.191,0,0,1,1.19,1.19v6.07a7.132,7.132,0,1,1-2.38,0V37.4H43.486v4.88a7.132,7.132,0,1,1-2.38,0Z" transform="translate(13.163 1.882)" fill="#fff"/>
        <path id="Path_85" data-name="Path 85" d="M137.039,29.4h-51a10.759,10.759,0,0,1-9.2-5.223l-4-6.7a8.366,8.366,0,0,0-7.151-4.061H34.352a8.322,8.322,0,0,0-7.893,5.68L.6,96.019h121.33l22.8-55.1A8.324,8.324,0,0,0,137.039,29.4M98.962,54.7,93.206,73.552a5.3,5.3,0,0,1-5.1,3.775H54.553a5.334,5.334,0,0,1-5.1-6.894L55.2,51.586a5.313,5.313,0,0,1,5.1-3.78h33.55a5.336,5.336,0,0,1,5.1,6.9" transform="translate(2.249 50.465)" fill="#fff"/>
        <path id="Path_86" data-name="Path 86" d="M148.2,82.244a10.693,10.693,0,0,0-8.908-4.761h-4.528c0-.043.014-.076.014-.119V10.712A10.728,10.728,0,0,0,124.063,0H24.994A10.728,10.728,0,0,0,14.283,10.712V42.457H10.712A10.728,10.728,0,0,0,0,53.169v94.5c0,.024.024.033.024.057a1.11,1.11,0,0,0,.2.633c.029.038.071.057.1.09a1.1,1.1,0,0,0,.114.1,1.151,1.151,0,0,0,.752.314H124.972a1.2,1.2,0,0,0,1.1-.733l23.1-55.835a10.684,10.684,0,0,0-.985-10.05m-1.214,9.141-22.8,55.1H2.847L28.7,69.561a8.332,8.332,0,0,1,7.9-5.68H67.933a8.376,8.376,0,0,1,7.151,4.061l4,6.7a10.773,10.773,0,0,0,9.2,5.223h51a8.326,8.326,0,0,1,7.694,11.521m-22.919-89a8.344,8.344,0,0,1,8.331,8.331V77.364c0,.043-.014.076-.014.119H88.285a8.386,8.386,0,0,1-7.156-4.061l-4-6.7A10.745,10.745,0,0,0,67.933,61.5H36.6a10.706,10.706,0,0,0-10.155,7.3L21.1,84.686a8.3,8.3,0,0,1-4.442-7.322V10.712A8.344,8.344,0,0,1,24.994,2.38ZM20.338,86.966,2.38,140.388V53.169a8.344,8.344,0,0,1,8.331-8.331h3.571V77.364a10.694,10.694,0,0,0,6.056,9.6" transform="translate(0 0.002)" fill="#224889"/>
        <path id="Path_87" data-name="Path 87" d="M56.4,24.964a2.955,2.955,0,0,0-2.828-3.823H20.025A2.945,2.945,0,0,0,17.2,23.236L11.441,42.084A2.953,2.953,0,0,0,14.269,45.9h33.55a2.947,2.947,0,0,0,2.828-2.09ZM33.922,37.671a4.147,4.147,0,1,1,4.147-4.147,4.147,4.147,0,0,1-4.147,4.147" transform="translate(42.533 79.51)" fill="#79aaff"/>
        <path id="Path_88" data-name="Path 88" d="M55.458,20.641H21.908a5.313,5.313,0,0,0-5.1,3.78L11.049,43.269a5.334,5.334,0,0,0,5.1,6.894H49.7a5.3,5.3,0,0,0,5.1-3.775l5.756-18.848a5.33,5.33,0,0,0-5.1-6.9M49.7,47.783H16.152a2.953,2.953,0,0,1-2.828-3.818L19.08,25.116a2.945,2.945,0,0,1,2.828-2.095h33.55a2.955,2.955,0,0,1,2.828,3.823L52.53,45.693a2.951,2.951,0,0,1-2.828,2.09" transform="translate(40.649 77.63)" fill="#224889"/>
        <path id="Path_89" data-name="Path 89" d="M19.335,22.871a4.147,4.147,0,1,0,4.147,4.147,4.147,4.147,0,0,0-4.147-4.147" transform="translate(57.12 86.016)" fill="#fff"/>
        <path id="Path_90" data-name="Path 90" d="M12.613,21.473a6.727,6.727,0,0,1,1.166.119v-4.88H49.486V21.6a6.815,6.815,0,0,1,1.214-.124,6.727,6.727,0,0,1,1.166.119v-6.07a1.191,1.191,0,0,0-1.19-1.19H32.823V6h-2.38v8.331H12.589a1.194,1.194,0,0,0-1.19,1.19V21.6A6.815,6.815,0,0,1,12.613,21.473Z" transform="translate(42.87 22.567)" fill="#224889"/>
        <path id="Path_91" data-name="Path 91" d="M36.454,17.283a4.763,4.763,0,0,0,4.761-4.761V7.761A4.763,4.763,0,0,0,36.454,3H17.411A4.763,4.763,0,0,0,12.65,7.761v4.761a4.763,4.763,0,0,0,4.761,4.761H36.454Z" transform="translate(47.575 11.284)" fill="#1ab394"/>
        <path id="Path_92" data-name="Path 92" d="M10.154,16.391a7.141,7.141,0,1,0,8.308-7.022A6.727,6.727,0,0,0,17.3,9.25a6.815,6.815,0,0,0-1.214.124,7.127,7.127,0,0,0-5.927,7.017" transform="translate(38.188 34.79)" fill="#1ab394"/>
        <path id="Path_93" data-name="Path 93" d="M25.3,9.25a6.86,6.86,0,0,0-1.214.124,7.151,7.151,0,1,0,2.38,0A6.727,6.727,0,0,0,25.3,9.25Z" transform="translate(68.274 34.79)" fill="#1ab394"/>
      </g>
    </g>
  </g>
</svg>
