<svg xmlns="http://www.w3.org/2000/svg" xmlns:xlink="http://www.w3.org/1999/xlink" width="125" height="125" viewBox="0 0 125 125">
  <defs>
    <clipPath id="clip-path">
      <rect id="Rectangle_29" data-name="Rectangle 29" width="56.899" height="49.279" fill="none"/>
    </clipPath>
  </defs>
  <g id="Folder_icon" data-name="Folder icon" transform="translate(-394 -137)">
    <circle id="Ellipse_22" data-name="Ellipse 22" cx="62.5" cy="62.5" r="62.5" transform="translate(394 137)" fill="#ecf4fe"/>
    <g id="Group_170" data-name="Group 170" transform="translate(428.051 173.861)">
      <g id="Group_169" data-name="Group 169" transform="translate(0 0)" clip-path="url(#clip-path)">
        <path id="Path_74" data-name="Path 74" d="M50.192,7.612H30.476A2.117,2.117,0,0,1,28.658,6.58L27.434,4.531a6.322,6.322,0,0,0-5.428-3.08H7.774A6.341,6.341,0,0,0,1.451,7.774v34.8A6.341,6.341,0,0,0,7.774,48.9H50.192a6.341,6.341,0,0,0,6.323-6.322V13.935a6.341,6.341,0,0,0-6.323-6.323" transform="translate(-0.534 -0.533)" fill="#fff"/>
        <path id="Path_75" data-name="Path 75" d="M49.657,49.279H7.239A7.248,7.248,0,0,1,0,42.039V7.239A7.248,7.248,0,0,1,7.239,0H21.473a7.279,7.279,0,0,1,6.216,3.526l1.224,2.048a1.2,1.2,0,0,0,1.029.586H49.657A7.249,7.249,0,0,1,56.9,13.4V42.039a7.248,7.248,0,0,1-7.241,7.239M7.239,1.835a5.411,5.411,0,0,0-5.4,5.4v34.8a5.411,5.411,0,0,0,5.4,5.4H49.657a5.412,5.412,0,0,0,5.405-5.4V13.4A5.412,5.412,0,0,0,49.657,8H29.942a3.047,3.047,0,0,1-2.606-1.481L26.112,4.468a5.43,5.43,0,0,0-4.639-2.633Z" transform="translate(0 0)" fill="#224889"/>
        <path id="Path_76" data-name="Path 76" d="M54.463,30.837H34.747a2.117,2.117,0,0,1-1.818-1.032l-1.224-2.049a6.322,6.322,0,0,0-5.428-3.08h-6.89A6.341,6.341,0,0,0,13.064,31V57.438h41.4a6.342,6.342,0,0,0,6.323-6.323V37.16a6.341,6.341,0,0,0-6.323-6.323" transform="translate(-4.805 -9.075)" fill="#fff"/>
        <path id="Path_77" data-name="Path 77" d="M53.928,57.821H12.53a.917.917,0,0,1-.917-.917V30.465a7.248,7.248,0,0,1,7.239-7.24h6.892a7.281,7.281,0,0,1,6.216,3.526L33.185,28.8a1.2,1.2,0,0,0,1.029.586H53.928a7.248,7.248,0,0,1,7.241,7.239V50.581a7.248,7.248,0,0,1-7.241,7.239m-40.48-1.835h40.48a5.412,5.412,0,0,0,5.406-5.4V36.625a5.412,5.412,0,0,0-5.406-5.4H34.214a3.047,3.047,0,0,1-2.607-1.481l-1.224-2.047a5.431,5.431,0,0,0-4.639-2.633H18.852a5.411,5.411,0,0,0-5.4,5.4Z" transform="translate(-4.271 -8.542)" fill="#224889"/>
        <path id="Path_78" data-name="Path 78" d="M54.082,57.887H36.658a.632.632,0,0,1-.632-.632V46.505a.632.632,0,0,1,.632-.632H54.082a.632.632,0,0,1,.632.632V57.255a.632.632,0,0,1-.632.632" transform="translate(-13.25 -16.872)" fill="#79aaff"/>
        <path id="Path_79" data-name="Path 79" d="M52.345,58.27H37.328a2.756,2.756,0,0,1-2.753-2.753V47.175a2.756,2.756,0,0,1,2.753-2.753H52.345A2.756,2.756,0,0,1,55.1,47.175v8.342a2.756,2.756,0,0,1-2.753,2.753M37.328,46.257a.92.92,0,0,0-.918.918v8.342a.919.919,0,0,0,.918.917H52.345a.919.919,0,0,0,.918-.917V47.175a.92.92,0,0,0-.918-.918Z" transform="translate(-12.716 -16.338)" fill="#224889"/>
        <path id="Path_80" data-name="Path 80" d="M51.574,54.306a1.835,1.835,0,1,1-1.835-1.835,1.836,1.836,0,0,1,1.835,1.835" transform="translate(-17.618 -19.298)" fill="#fff"/>
      </g>
    </g>
  </g>
</svg>
