<svg xmlns="http://www.w3.org/2000/svg" width="24" height="24.027" viewBox="0 0 24 24.027">
  <g id="Group_536" data-name="Group 536" transform="translate(0.5 0.508)">
    <path id="Path_97" data-name="Path 97" d="M8.714.5H20.853A3.461,3.461,0,0,1,24.69,4.338v5.812" transform="translate(-2.19 0)" fill="none" stroke="#272f43" stroke-width="1"/>
    <path id="Path_98" data-name="Path 98" d="M8.714.5H20.853A3.461,3.461,0,0,1,24.69,4.338v5.812" transform="translate(-2.19 0)" fill="none" stroke="#272f43" stroke-width="2"/>
    <path id="Path_100" data-name="Path 100" d="M16.616,22.519H6.384C1.875,22.519.5,21.145.5,16.635V6.4C.5,1.893,1.875.519,6.384.519H7.918a3.161,3.161,0,0,1,3.068,1.533L12.527,4.1c.34.453.384.513,1.027.513h3.07c4.5,0,5.877,1.372,5.877,5.878v6.139c0,4.513-1.375,5.887-5.884,5.887" transform="translate(0 0)" fill="#eee" stroke="#272f43" stroke-width="2"/>
  </g>
</svg>
