<?xml version="1.0" encoding="utf-8"?>
<!-- Generator: Adobe Illustrator 27.4.1, SVG Export Plug-In . SVG Version: 6.00 Build 0)  -->
<svg version="1.1" id="Layer_1" xmlns="http://www.w3.org/2000/svg" xmlns:xlink="http://www.w3.org/1999/xlink" x="0px" y="0px"
	 viewBox="0 0 307.9 261.5" style="enable-background:new 0 0 307.9 261.5;" xml:space="preserve">
<style type="text/css">
	.st0{fill:#FFFFFF;stroke:#1F8CED;stroke-miterlimit:10;}
	.st1{fill:none;stroke:#1F8CED;stroke-miterlimit:10;}
	.st2{fill:#FFFFFF;}
	.st3{fill:#1F8CED;}
	.st4{fill:#226DB4;}
	.st5{fill:#EB3A38;}
	.st6{fill:#A5D1F7;stroke:#1F8CED;stroke-miterlimit:10;}
	.st7{fill:#A5D1F7;stroke:#1F8CED;stroke-width:1;stroke-miterlimit:9.9997;}
	.st8{fill:#F0FAFF;stroke:#1F8CED;stroke-miterlimit:10;stroke-dasharray:100,10;}
	.st9{fill:none;stroke:#EE4266;stroke-linecap:round;stroke-linejoin:round;stroke-miterlimit:10;}
	.st10{fill:#3BCEAC;}
	.st11{font-family:'PTSerif-Regular';}
	.st12{font-size:34.511px;}
	.st13{fill:none;stroke:#FFD23F;stroke-miterlimit:10;}
	.st14{fill:none;stroke:#408CE5;stroke-width:2;stroke-linecap:round;stroke-miterlimit:10;}
	.st15{opacity:0.9;}
	.st16{fill:#F7B21B;}
	.st17{fill:#236EB4;}
	.st18{fill:#049949;}
	.st19{fill:#E32628;}
	.st20{fill:#F9B21D;}
	.st21{fill:#E42527;}
</style>
<g>
	<path class="st0" d="M222.1,211.5l-146-53.2c-2.3-0.8-3.5-3.5-2.7-5.8l53.1-146c0.8-2.3,3.5-3.5,5.8-2.7L278.4,57
		c2.3,0.8,3.5,3.5,2.7,5.8l-53.2,146.1C227.1,211.2,224.5,212.4,222.1,211.5z"/>
	<path class="st1" d="M185.1,87l-3,8.2c-0.4,1,0.2,2.2,1.2,2.6l39.6,14.4c1,0.4,1.6,1.5,1.2,2.6l-5.9,16.3"/>
	<path class="st1" d="M189.6,74.4l-7.5,20.7c-0.4,1-1.5,1.6-2.6,1.2L139.9,82c-1-0.4-2.2,0.2-2.6,1.2l-15.1,41.5"/>
	<g>
		<g>
			<path class="st2" d="M180.3,71l18.2,6.6c1.9,0.7,4.1-0.3,4.8-2.2l6.6-18.2c0.7-1.9-0.3-4.1-2.2-4.8l-18.2-6.6
				c-1.9-0.7-4.1,0.3-4.8,2.2l-6.6,18.2C177.4,68.2,178.4,70.3,180.3,71z"/>
			<path class="st1" d="M180.3,71l18.2,6.6c1.9,0.7,4.1-0.3,4.8-2.2l6.6-18.2c0.7-1.9-0.3-4.1-2.2-4.8l-18.2-6.6
				c-1.9-0.7-4.1,0.3-4.8,2.2l-6.6,18.2C177.4,68.2,178.4,70.3,180.3,71z"/>
		</g>
	</g>
	<g>
		<g>
			<path class="st2" d="M200,153.6l18.2,6.6c1.9,0.7,4.1-0.3,4.8-2.2l6.6-18.2c0.7-1.9-0.3-4.1-2.2-4.8l-18.2-6.6
				c-1.9-0.7-4.1,0.3-4.8,2.2l-6.6,18.2C197.1,150.8,198.1,152.9,200,153.6z"/>
			<path class="st1" d="M200,153.6l18.2,6.6c1.9,0.7,4.1-0.3,4.8-2.2l6.6-18.2c0.7-1.9-0.3-4.1-2.2-4.8l-18.2-6.6
				c-1.9-0.7-4.1,0.3-4.8,2.2l-6.6,18.2C197.1,150.8,198.1,152.9,200,153.6z"/>
		</g>
	</g>
	<g>
		<g>
			<path class="st2" d="M104.2,147.2l18.2,6.6c1.9,0.7,4.1-0.3,4.8-2.2l6.6-18.2c0.7-1.9-0.3-4.1-2.2-4.8l-18.2-6.6
				c-1.9-0.7-4.1,0.3-4.8,2.2l-6.6,18.2C101.2,144.4,102.2,146.5,104.2,147.2z"/>
			<path class="st1" d="M104.2,147.2l18.2,6.6c1.9,0.7,4.1-0.3,4.8-2.2l6.6-18.2c0.7-1.9-0.3-4.1-2.2-4.8l-18.2-6.6
				c-1.9-0.7-4.1,0.3-4.8,2.2l-6.6,18.2C101.2,144.4,102.2,146.5,104.2,147.2z"/>
		</g>
	</g>
	<circle class="st3" cx="189.5" cy="74.4" r="2"/>
	<polygon class="st3" points="121.9,125.2 120.5,121.2 125.6,123 	"/>
	<polygon class="st3" points="217.8,131.7 216.4,127.6 221.5,129.4 	"/>
	<g id="evbS4o.tif_1_">
	</g>
	<g id="NxgQdw.tif_1_">
	</g>
	<g>
		<g>
			<path class="st4" d="M190.7,68.9c-0.1,0-0.1-0.1-0.2-0.1c-0.1-0.2-0.1-0.4,0.1-0.6l2.8-2.1c0.1-0.1,0.3-0.1,0.4-0.1l3.9,1.4
				c0.4,0.1,0.7-0.1,0.9-0.4l2.6-7.1c0.1-0.4-0.1-0.7-0.4-0.9l-4.1-1.5c-0.2-0.1-0.3-0.3-0.2-0.5s0.3-0.3,0.5-0.2l4.1,1.5
				c0.8,0.3,1.2,1.1,0.9,1.9l-2.6,7.1c-0.3,0.8-1.1,1.2-1.9,0.9l-3.7-1.3l-2.6,2C191,69,190.8,69,190.7,68.9z M189.9,65.5l-2.9-1
				c-0.8-0.3-1.2-1.1-0.9-1.9l2.6-7.1c0.3-0.8,1.1-1.2,1.9-0.9l3.6,1.3c0.2,0.1,0.3,0.3,0.2,0.5s-0.3,0.3-0.5,0.2l-3.6-1.3
				c-0.4-0.1-0.7,0.1-0.9,0.4l-2.6,7.1c-0.1,0.4,0.1,0.7,0.4,0.9l2.9,1c0.2,0.1,0.3,0.3,0.2,0.5S190.1,65.6,189.9,65.5z"/>
		</g>
		<g>
			<g>
				<circle class="st5" cx="196.8" cy="62.4" r="0.8"/>
			</g>
			<g>
				<ellipse class="st5" cx="194" cy="61.4" rx="0.8" ry="0.8"/>
			</g>
			<g>
				<circle class="st5" cx="191.2" cy="60.4" r="0.8"/>
			</g>
		</g>
	</g>
</g>
<path class="st1" d="M300.8,236.6c-8.3-14.4-27.2-19-42.3-10.3"/>
<path class="st1" d="M271.4,221.9c-8.9-15.4-25.1-22.6-36.3-16.1"/>
<path class="st0" d="M230.3,231.3H74.8c-2.5,0-4.5-2-4.5-4.5V71.3c0-2.5,2-4.5,4.5-4.5h155.5c2.5,0,4.5,2,4.5,4.5v155.5
	C234.8,229.2,232.7,231.3,230.3,231.3z"/>
<path class="st1" d="M152.8,127v8.7c0,1.1,0.9,2,2,2H197c1.1,0,2,0.9,2,2v17.4"/>
<path class="st1" d="M152.8,113.6v22.1c0,1.1-0.9,2-2,2h-42.1c-1.1,0-2,0.9-2,2v44.1"/>
<g>
	<g>
		<path class="st2" d="M142.9,113.6h19.3c2,0,3.7-1.7,3.7-3.7V90.5c0-2-1.7-3.7-3.7-3.7h-19.3c-2,0-3.7,1.7-3.7,3.7v19.3
			C139.2,111.9,140.8,113.6,142.9,113.6z"/>
		<path class="st1" d="M142.9,113.6h19.3c2,0,3.7-1.7,3.7-3.7V90.5c0-2-1.7-3.7-3.7-3.7h-19.3c-2,0-3.7,1.7-3.7,3.7v19.3
			C139.2,111.9,140.8,113.6,142.9,113.6z"/>
	</g>
</g>
<g>
	<g>
		<path class="st2" d="M189.7,184.5H209c2,0,3.7-1.7,3.7-3.7v-19.3c0-2-1.7-3.7-3.7-3.7h-19.3c-2,0-3.7,1.7-3.7,3.7v19.3
			C186,182.8,187.6,184.5,189.7,184.5z"/>
		<path class="st1" d="M189.7,184.5H209c2,0,3.7-1.7,3.7-3.7v-19.3c0-2-1.7-3.7-3.7-3.7h-19.3c-2,0-3.7,1.7-3.7,3.7v19.3
			C186,182.8,187.6,184.5,189.7,184.5z"/>
	</g>
</g>
<g>
	<g>
		<path class="st2" d="M97.4,211.2h19.3c2,0,3.7-1.7,3.7-3.7v-19.3c0-2-1.7-3.7-3.7-3.7H97.4c-2,0-3.7,1.7-3.7,3.7v19.3
			C93.7,209.5,95.4,211.2,97.4,211.2z"/>
		<path class="st1" d="M97.4,211.2h19.3c2,0,3.7-1.7,3.7-3.7v-19.3c0-2-1.7-3.7-3.7-3.7H97.4c-2,0-3.7,1.7-3.7,3.7v19.3
			C93.7,209.5,95.4,211.2,97.4,211.2z"/>
	</g>
</g>
<circle class="st3" cx="152.7" cy="113.6" r="2"/>
<polygon class="st3" points="106.6,184.5 103.9,181.1 109.3,181.1 "/>
<polygon class="st3" points="198.9,157.7 196.2,154.4 201.6,154.4 "/>
<g>
	<circle class="st2" cx="234.5" cy="113.9" r="30.3"/>
	<circle class="st1" cx="234.5" cy="113.9" r="30.3"/>
</g>
<circle class="st6" cx="234.5" cy="113.9" r="23.4"/>
<g>
	<path class="st2" d="M266.7,136.5l36,36c2.3,2.3,2.3,6,0,8.2l-1.4,1.4c-2.3,2.3-6,2.3-8.2,0l-36-36c-2.1-2.1-2.3-5.4-0.5-7.6
		c0.7,0.5,1.6,0.4,2.2-0.2c0.6-0.6,0.7-1.5,0.2-2.2C261.2,134.3,264.6,134.4,266.7,136.5z"/>
	<path class="st1" d="M266.7,136.5l36,36c2.3,2.3,2.3,6,0,8.2l-1.4,1.4c-2.3,2.3-6,2.3-8.2,0l-36-36c-2.1-2.1-2.3-5.4-0.5-7.6
		c0.7,0.5,1.6,0.4,2.2-0.2c0.6-0.6,0.7-1.5,0.2-2.2C261.2,134.3,264.6,134.4,266.7,136.5z"/>
</g>
<rect x="273.1" y="133.9" transform="matrix(0.7071 -0.7071 0.7071 0.7071 -30.6985 244.5824)" class="st7" width="13.6" height="50.9"/>
<path class="st8" d="M258.7,138.3L258.7,138.3c-0.5,0.5-1.4,0.5-1.9,0l-0.9-0.9c-0.5-0.5-0.5-1.4,0-1.9l0,0c0.5-0.5,1.4-0.5,1.9,0
	l0.9,0.9C259.2,137,259.2,137.8,258.7,138.3z"/>
<line class="st9" x1="68" y1="251.6" x2="74.7" y2="244.9"/>
<line class="st9" x1="74.7" y1="251.6" x2="68" y2="244.9"/>
<line class="st9" x1="220.8" y1="22.5" x2="224.1" y2="19.2"/>
<line class="st9" x1="224.1" y1="22.5" x2="220.8" y2="19.2"/>
<g>
	<text transform="matrix(1 0 0 1 211.7697 252.0963)" class="st10 st11 st12">~</text>
</g>
<g>
	<text transform="matrix(0.766 -0.6428 0.6428 0.766 52.1035 186.7687)" class="st10 st11 st12">~</text>
</g>
<circle class="st13" cx="81.5" cy="49.7" r="4"/>
<path class="st1" d="M4.4,250c8.3-14.4,27.2-19,42.3-10.3"/>
<path class="st1" d="M33.8,235.3c8.9-15.4,25.1-22.6,36.3-16.1"/>
<path class="st1" d="M249.3,110.6c0-6.3-5.1-11.4-11.4-11.4"/>
<line class="st14" x1="288.6" y1="54.8" x2="291.6" y2="53.1"/>
<line class="st14" x1="282.9" y1="50" x2="282.9" y2="46.6"/>
<line class="st14" x1="290" y1="62.2" x2="292.9" y2="64"/>
<polygon class="st0" points="152.7,131.9 147.7,134.8 147.7,140.6 152.7,143.5 157.7,140.6 157.7,134.8 "/>
<g>
	<g class="st15">
		<path class="st16" d="M197.9,176.4c-0.1,0-0.2,0-0.3-0.1l-2.4-2.4c-0.1-0.1-0.1-0.4,0-0.5s0.4-0.1,0.5,0l2.4,2.4
			c0.1,0.1,0.1,0.4,0,0.5C198.1,176.4,198,176.4,197.9,176.4z"/>
	</g>
	<g class="st15">
		<path class="st16" d="M197.9,172c-0.1,0-0.2,0-0.3-0.1l-2.4-2.4c-0.1-0.1-0.1-0.4,0-0.5s0.4-0.1,0.5,0l2.4,2.4
			c0.1,0.1,0.1,0.4,0,0.5C198.1,172,198,172,197.9,172z"/>
	</g>
	<g class="st15">
		<path class="st16" d="M197.9,174.2c-0.1,0-0.2,0-0.3-0.1l-2.4-2.4c-0.1-0.1-0.1-0.4,0-0.5s0.4-0.1,0.5,0l2.4,2.4
			c0.1,0.1,0.1,0.4,0,0.5C198.1,174.2,198,174.2,197.9,174.2z"/>
	</g>
	<g class="st15">
		<path class="st17" d="M200.7,173.6c-0.1,0-0.2,0-0.3-0.1s-0.1-0.4,0-0.5l4.8-4.8c0.1-0.1,0.4-0.1,0.5,0s0.1,0.4,0,0.5l-4.8,4.8
			C200.9,173.6,200.8,173.6,200.7,173.6z"/>
	</g>
	<g class="st15">
		<path class="st17" d="M200.7,171.4c-0.1,0-0.2,0-0.3-0.1s-0.1-0.4,0-0.5l3.4-3.4l-0.6-0.6l-2.3,2.3c-0.1,0.1-0.4,0.1-0.5,0
			s-0.1-0.4,0-0.5l2.5-2.5c0.1-0.1,0.2-0.1,0.3-0.1s0.2,0,0.3,0.1l1.1,1.1c0.1,0.1,0.1,0.4,0,0.5l-3.6,3.6
			C200.9,171.3,200.8,171.4,200.7,171.4z"/>
	</g>
	<g class="st15">
		<path class="st18" d="M197.9,172c-0.1,0-0.2,0-0.3-0.1s-0.1-0.4,0-0.5l2.8-2.8c0.1-0.1,0.4-0.1,0.5,0s0.1,0.4,0,0.5l-2.8,2.8
			C198.1,172,198,172,197.9,172z"/>
	</g>
	<g class="st15">
		<path class="st18" d="M197.9,174.2c-0.1,0-0.2,0-0.3-0.1s-0.1-0.4,0-0.5l2.8-2.8c0.1-0.1,0.4-0.1,0.5,0s0.1,0.4,0,0.5l-2.8,2.8
			C198.1,174.2,198,174.2,197.9,174.2z"/>
	</g>
	<g class="st15">
		<path class="st18" d="M197.9,176.4c-0.1,0-0.2,0-0.3-0.1s-0.1-0.4,0-0.5l2.8-2.8c0.1-0.1,0.4-0.1,0.5,0s0.1,0.4,0,0.5l-2.8,2.8
			C198.1,176.4,198,176.4,197.9,176.4z"/>
	</g>
	<g class="st15">
		<path class="st19" d="M195.4,174c-0.1,0-0.2,0-0.3-0.1l-2.2-2.2c-0.1-0.1-0.1-0.2-0.1-0.3s0-0.2,0.1-0.3l2.2-2.2
			c0.1-0.1,0.4-0.1,0.5,0s0.1,0.4,0,0.5l-1.9,1.9l1.9,1.9c0.1,0.1,0.1,0.4,0,0.5C195.6,174,195.5,174,195.4,174z"/>
	</g>
</g>
<g>
	<g class="st15">
		<path class="st20" d="M156.4,102.5c-0.2,0-0.4-0.2-0.4-0.4V100c0-0.2-0.2-0.4-0.4-0.4h-6.1c-0.2,0-0.4,0.2-0.4,0.4v0.4
			c0,0.2-0.2,0.4-0.4,0.4s-0.4-0.2-0.4-0.4V100c0-0.6,0.5-1.2,1.2-1.2h6.1c0.6,0,1.2,0.5,1.2,1.2v2.1
			C156.7,102.3,156.6,102.5,156.4,102.5z"/>
	</g>
	<g class="st15">
		<path class="st4" d="M157.9,106.7h-10.7c-0.6,0-1.2-0.5-1.2-1.2v-3c0-0.2,0.2-0.4,0.4-0.4s0.4,0.2,0.4,0.4v3
			c0,0.2,0.2,0.4,0.4,0.4h10.7c0.2,0,0.4-0.2,0.4-0.4v-6.4c0-0.1-0.1-0.2-0.1-0.3l-5.3-4.2c-0.1-0.1-0.3-0.1-0.5,0l-5.3,4.2
			c-0.1,0.1-0.1,0.2-0.1,0.3v1.3c0,0.1,0.1,0.3,0.2,0.3l5.3,2.8c0.1,0.1,0.3,0.1,0.4,0l3.4-1.8c0.2-0.1,0.4,0,0.5,0.2s0,0.4-0.2,0.5
			l-3.4,1.8c-0.3,0.2-0.7,0.2-1.1,0l-5.3-2.8c-0.4-0.2-0.6-0.6-0.6-1v-1.3c0-0.4,0.2-0.7,0.4-0.9l5.3-4.2c0.2-0.2,0.5-0.2,0.7-0.2
			l0,0c0.3,0,0.5,0.1,0.7,0.2l5.3,4.2c0.3,0.2,0.4,0.5,0.4,0.9v6.4C159,106.2,158.5,106.7,157.9,106.7z"/>
	</g>
</g>
<g>
	<g class="st15">
		<path class="st4" d="M107.3,204.1C107.3,204.1,107.3,204.1,107.3,204.1c-0.4,0-0.9-0.2-1.2-0.5l-5.5-5.5c-0.1-0.1-0.1-0.4,0-0.5
			l5.5-5.5c0.3-0.3,0.7-0.5,1.2-0.5l0,0c0.4,0,0.9,0.2,1.2,0.5l2,2c0.1,0.1,0.1,0.4,0,0.5l-3.3,3.3l3.3,3.3c0.1,0.1,0.1,0.4,0,0.5
			l-2,2C108.2,203.9,107.8,204.1,107.3,204.1z M101.5,197.9l5.2,5.2c0.2,0.2,0.4,0.3,0.6,0.3h0c0.2,0,0.5-0.1,0.6-0.3l1.7-1.7
			l-3.3-3.3c-0.1-0.1-0.1-0.4,0-0.5l3.3-3.3l-1.7-1.7c-0.2-0.2-0.4-0.3-0.6-0.3c-0.2,0-0.5,0.1-0.6,0.3L101.5,197.9z"/>
	</g>
	<g class="st15">
		<path class="st21" d="M111.5,200.4c-0.1,0-0.2,0-0.3-0.1l-2.2-2.2c-0.1-0.1-0.1-0.4,0-0.5l2.2-2.2c0.1-0.1,0.2-0.1,0.3-0.1
			c0.1,0,0.2,0,0.3,0.1l1.3,1.3c0.6,0.6,0.6,1.7,0,2.3l-1.3,1.3C111.7,200.4,111.6,200.4,111.5,200.4z M109.9,197.8l1.6,1.7l1-1
			c0.3-0.3,0.3-0.9,0-1.3l-1-1L109.9,197.8z"/>
	</g>
</g>
</svg>
