<svg id="Help" xmlns="http://www.w3.org/2000/svg" width="32" height="32" viewBox="0 0 32 32">
  <g id="Group_261" data-name="Group 261" transform="translate(-0.416 -1.798)">
    <path id="Path_378" data-name="Path 378" d="M10.392,12.967a1.392,1.392,0,0,1-1.071.392,1.378,1.378,0,0,1-1.054-.392,1.42,1.42,0,0,1,.019-1.945,1.41,1.41,0,0,1,1.035-.376,1.424,1.424,0,0,1,1.052.376,1.325,1.325,0,0,1,.395,1,1.292,1.292,0,0,1-.376.945" transform="translate(7.586 12.011)"/>
    <path id="Path_379" data-name="Path 379" d="M14.008,12.617l-1.286,1.267a3.481,3.481,0,0,0-.714,2.3H9.633a5.93,5.93,0,0,1,.338-2.231,5.884,5.884,0,0,1,1.376-1.8,10.934,10.934,0,0,0,1.286-1.411,2.468,2.468,0,0,0,.43-1.394,2.021,2.021,0,0,0-.5-1.482,1.8,1.8,0,0,0-1.43-.518,2.056,2.056,0,0,0-1.444.5,1.789,1.789,0,0,0-.555,1.373H6.6A3.719,3.719,0,0,1,7.865,6.295,4.728,4.728,0,0,1,11.131,5.2a4.707,4.707,0,0,1,3.288,1.073A3.834,3.834,0,0,1,15.6,9.258a4.9,4.9,0,0,1-1.588,3.358" transform="translate(5.82 4.593)"/>
  </g>
  <path id="Path_380" data-name="Path 380" d="M16,32A16,16,0,1,1,32,16,16.018,16.018,0,0,1,16,32M16,1.882A14.118,14.118,0,1,0,30.118,16,14.132,14.132,0,0,0,16,1.882"/>
</svg>
