<svg xmlns="http://www.w3.org/2000/svg" xmlns:xlink="http://www.w3.org/1999/xlink" width="54.933" height="48" viewBox="0 0 54.933 48">
  <defs>
    <clipPath id="clip-path">
      <rect id="Rectangle_1" data-name="Rectangle 1" width="54.933" height="48" fill="none"/>
    </clipPath>
  </defs>
  <g id="Group_1" data-name="Group 1" clip-path="url(#clip-path)">
    <path id="Path_1" data-name="Path 1" d="M11.321,42.426a1.609,1.609,0,0,1-1.4-.8L.216,24.8a1.609,1.609,0,0,1,0-1.609L13.144.8A1.609,1.609,0,0,1,14.538,0H40.4a1.607,1.607,0,0,1,.67,3.073,17.557,17.557,0,0,0-4.786,3.8A25.029,25.029,0,0,0,32.444,12.4a30.862,30.862,0,0,0-2.5,6.775l4.44,0h0a1.609,1.609,0,0,1,0,3.219l-6.437,0h0a1.61,1.61,0,0,1-1.581-1.909A35.032,35.032,0,0,1,29.646,10.8a28.147,28.147,0,0,1,4.4-6.256c.459-.489.911-.932,1.346-1.331H15.467L3.468,24l9.245,16.012a1.61,1.61,0,0,1-1.392,2.415" transform="translate(0 0)" fill="#226db4"/>
    <path id="Path_2" data-name="Path 2" d="M268.342,146.565H242.485a1.607,1.607,0,0,1-.67-3.073,17.559,17.559,0,0,0,4.786-3.8,25.051,25.051,0,0,0,3.834-5.522,30.884,30.884,0,0,0,2.5-6.774H248.5a1.609,1.609,0,1,1,0-3.219h6.436a1.61,1.61,0,0,1,1.581,1.91,34.995,34.995,0,0,1-3.283,9.678,28.137,28.137,0,0,1-4.4,6.254c-.459.489-.91.932-1.345,1.33h19.926l12-20.781-9.237-16a1.609,1.609,0,0,1,2.787-1.609l9.7,16.8a1.609,1.609,0,0,1,0,1.609l-12.929,22.391a1.608,1.608,0,0,1-1.394.8" transform="translate(-227.947 -98.565)" fill="#009849"/>
  </g>
</svg>
