<svg id="Notification" xmlns="http://www.w3.org/2000/svg" width="28" height="32" viewBox="0 0 28 32">
  <path id="Path_362" data-name="Path 362" d="M26.88,17.46,24.3,14.88a1.019,1.019,0,0,1-.3-.7V10A10,10,0,0,0,4,10v4.18a.938.938,0,0,1-.3.7L1.12,17.46A3.8,3.8,0,0,0,0,20.16v.82a3,3,0,0,0,3,3H25a3,3,0,0,0,3-3v-.82a3.8,3.8,0,0,0-1.12-2.7M26,21a.99.99,0,0,1-1,1H3a.99.99,0,0,1-1-1v-.82a1.783,1.783,0,0,1,.54-1.3L5.12,16.3A3.032,3.032,0,0,0,6,14.18V10a8,8,0,0,1,16,0v4.18a3.032,3.032,0,0,0,.88,2.12l2.58,2.58a1.83,1.83,0,0,1,.54,1.3Z" transform="translate(0)"/>
  <path id="Path_363" data-name="Path 363" d="M13.5,13a.99.99,0,0,0-1,1,3,3,0,0,1-6,0,1,1,0,0,0-2,0,5,5,0,0,0,10,0,.99.99,0,0,0-1-1" transform="translate(4.5 13)"/>
</svg>
