<svg xmlns="http://www.w3.org/2000/svg" xmlns:xlink="http://www.w3.org/1999/xlink" width="32" height="23.063" viewBox="0 0 32 23.063">
  <defs>
    <clipPath id="clip-path">
      <rect id="Rectangle_53" data-name="Rectangle 53" width="32" height="23.063"/>
    </clipPath>
  </defs>
  <g id="refer" transform="translate(0 0)">
    <g id="Group_253" data-name="Group 253" transform="translate(0 0)" clip-path="url(#clip-path)">
      <path id="Path_373" data-name="Path 373" d="M27.816,13.591a.939.939,0,0,0-1.248-.463l-4.489,2.054a.942.942,0,0,0,.783,1.713L25.1,15.866l-.439,1.272A5.993,5.993,0,0,1,19,21.18H1.954c.5-3.268,3.507-6.308,6.351-7.908a5.162,5.162,0,0,0,3.356,1.436,5.192,5.192,0,0,0,3.416-1.491,15.362,15.362,0,0,1,3.912,3.132.941.941,0,0,0,1.4-1.254,17.3,17.3,0,0,0-4.058-3.313A9.482,9.482,0,0,0,18.178,6.5a6.506,6.506,0,0,0-13.013,0,9.573,9.573,0,0,0,1.877,5.35C3.565,13.924,0,17.888,0,22.121a.939.939,0,0,0,.941.941H19a7.88,7.88,0,0,0,7.448-5.31l.518-1.5L28.132,18.8a.937.937,0,0,0,.856.55.927.927,0,0,0,.39-.085.944.944,0,0,0,.465-1.248ZM11.661,1.882A4.631,4.631,0,0,1,16.3,6.5a7.8,7.8,0,0,1-2.089,4.977c-1.608,1.743-3.475,1.752-5.094-.006A7.859,7.859,0,0,1,7.048,6.5a4.619,4.619,0,0,1,4.614-4.614" transform="translate(0 -0.001)"/>
      <path id="Path_374" data-name="Path 374" d="M22.591,10.747a9.651,9.651,0,0,0-2.769-2.6,5.553,5.553,0,0,0,.789-2.682,4,4,0,0,0-7.991,0,5.6,5.6,0,0,0,.785,2.684,9.679,9.679,0,0,0-2.765,2.6.942.942,0,0,0,1.549,1.071A7.884,7.884,0,0,1,14.61,9.612a3.194,3.194,0,0,0,2,.785,3.2,3.2,0,0,0,2.007-.789,7.893,7.893,0,0,1,2.426,2.21.941.941,0,0,0,.776.4.927.927,0,0,0,.533-.166.941.941,0,0,0,.239-1.31M15.523,7.9A3.915,3.915,0,0,1,14.5,5.467a2.113,2.113,0,0,1,4.226,0A3.884,3.884,0,0,1,17.7,7.908a1.3,1.3,0,0,1-2.172,0" transform="translate(9.241 1.302)"/>
    </g>
  </g>
</svg>
